<svg xmlns="http://www.w3.org/2000/svg" viewBox="0 0 96 112"><defs><filter id="g"><feGaussianBlur stdDeviation="4"/></filter></defs><ellipse cx="48" cy="99" rx="31" ry="8" fill="#7c3cff" opacity=".25" filter="url(#g)"/><ellipse cx="48" cy="99" rx="27" ry="6" fill="#05030b" opacity=".8"/><path d="M25 48 Q20 69 17 91 Q32 101 48 102 Q64 101 79 91 Q76 69 71 48Z" fill="#11131b" stroke="#7650d9" stroke-width="2"/><path d="M34 53 Q30 76 31 95 Q48 100 65 95 Q66 76 62 53Z" fill="#211a35"/><path d="M30 36 Q28 15 48 9 Q68 15 66 36 L61 53 L35 53Z" fill="#171923" stroke="#8060df" stroke-width="2"/><ellipse cx="48" cy="34" rx="16" ry="18" fill="#c58e79"/><path d="M31 32 Q32 10 49 10 Q66 12 66 30 L58 25 L54 31 L49 22 L42 31 L37 25Z" fill="#08090d"/><path d="M40 35 l5 0 M51 35 l5 0" stroke="#a97cff" stroke-width="2"/><circle cx="43" cy="35" r="1.5" fill="#fff"/><circle cx="54" cy="35" r="1.5" fill="#fff"/><path d="M39 54 L48 62 L57 54" fill="none" stroke="#8a55ff" stroke-width="2" opacity=".8"/></svg>